# xmcd
#
# Track frame offsets:
#	150
#	12781
#	28185
#	49120
#	65697
#	80501
#	95395
#	113830
#	130591
#	147225
#	163568
#
# Disc length: 2352 seconds
# Revision: 0
# Processed by: cddbd v1.5.2PL0 Copyright (c) Steve Scherf et al.
# Submitted via: dBpowerAMP V12.0
#
DISCID=8b092e0b
DTITLE=Alain Tremblay - Gueule de bois
DYEAR=2010
DGENRE=Chanson
TTITLE0=Quarante ans
TTITLE1=Barcelone
TTITLE2=L'amitie
TTITLE3=J'suis pas un ange
TTITLE4=La rencontre
TTITLE5=La valse de la serveuse et du chansonnier
TTITLE6=J'aime le Quebec
TTITLE7=Allez Isa !
TTITLE8=Les crocs
TTITLE9=Langue de bois
TTITLE10=Quebec avenue
EXTD=
EXTT0=
EXTT1=
EXTT2=
EXTT3=
EXTT4=
EXTT5=
EXTT6=
EXTT7=
EXTT8=
EXTT9=
EXTT10=
PLAYORDER=
